HIERARCHY
ROOT Hips
{
	OFFSET -14.64140 90.27770 -84.91600
	CHANNELS 6 Xposition Yposition Zposition Zrotation Xrotation Yrotation
	JOINT Spine
	{
		OFFSET 0.00000 13.20850 -1.60436
		CHANNELS 3 Zrotation Xrotation Yrotation
		JOINT Spine1
		{
			OFFSET 0.00000 8.61716 0.00000
			CHANNELS 3 Zrotation Xrotation Yrotation
			JOINT Spine2
			{
				OFFSET 0.00000 8.61717 0.00000
				CHANNELS 3 Zrotation Xrotation Yrotation
				JOINT Spine3
				{
					OFFSET 0.00000 8.61717 0.00000
					CHANNELS 3 Zrotation Xrotation Yrotation
					JOINT Neck
					{
						OFFSET 0.00000 11.07920 1.10792
						CHANNELS 3 Zrotation Xrotation Yrotation
						JOINT Neck1
						{
							OFFSET 0.00000 7.08032 0.00000
							CHANNELS 3 Zrotation Xrotation Yrotation
							JOINT Head
							{
								OFFSET 0.00000 7.08031 0.00000
								CHANNELS 3 Zrotation Xrotation Yrotation
								End site
								{
									OFFSET 0.00000 0.00000 0.00000
								}
							}
						}
					}
					JOINT RightShoulder
					{
						OFFSET -0.01000 7.91373 5.19711
						CHANNELS 3 Zrotation Xrotation Yrotation
						JOINT RightArm
						{
							OFFSET -18.41580 0.00000 0.00000
							CHANNELS 3 Zrotation Xrotation Yrotation
							JOINT RightForeArm
							{
								OFFSET -29.11090 0.00000 0.00000
								CHANNELS 3 Zrotation Xrotation Yrotation
								JOINT RightHand
								{
									OFFSET -24.65040 0.00000 0.00000
									CHANNELS 3 Zrotation Xrotation Yrotation
									JOINT RightHandThumb1
									{
										OFFSET -5.35114 -0.85590 3.97906
										CHANNELS 3 Zrotation Xrotation Yrotation
										JOINT RightHandThumb2
										{
											OFFSET -4.52789 0.00000 0.00000
											CHANNELS 3 Zrotation Xrotation Yrotation
											JOINT RightHandThumb3
											{
												OFFSET -2.46976 0.00000 0.00000
												CHANNELS 3 Zrotation Xrotation Yrotation
												End site
												{
													OFFSET 0.00000 0.00000 0.00000
												}
											}
										}
									}
									JOINT RightHandIndex1
									{
										OFFSET -14.26970 0.00000 2.88139
										CHANNELS 3 Zrotation Xrotation Yrotation
										JOINT RightHandIndex2
										{
											OFFSET -5.48836 0.00000 0.00000
											CHANNELS 3 Zrotation Xrotation Yrotation
											JOINT RightHandIndex3
											{
												OFFSET -3.01859 0.00000 0.00000
												CHANNELS 3 Zrotation Xrotation Yrotation
												End site
												{
													OFFSET 0.00000 0.00000 0.00000
												}
											}
										}
									}
									JOINT RightHandMiddle1
									{
										OFFSET -14.26970 0.00000 -0.09147
										CHANNELS 3 Zrotation Xrotation Yrotation
										JOINT RightHandMiddle2
										{
											OFFSET -6.17441 0.00000 0.00000
											CHANNELS 3 Zrotation Xrotation Yrotation
											JOINT RightHandMiddle3
											{
												OFFSET -3.56743 0.00000 0.00000
												CHANNELS 3 Zrotation Xrotation Yrotation
												End site
												{
													OFFSET 0.00000 0.00000 0.00000
												}
											}
										}
									}
									JOINT RightHandRing1
									{
										OFFSET -12.69180 0.00000 -3.06433
										CHANNELS 3 Zrotation Xrotation Yrotation
										JOINT RightHandRing2
										{
											OFFSET -5.62556 0.00000 0.00000
											CHANNELS 3 Zrotation Xrotation Yrotation
											JOINT RightHandRing3
											{
												OFFSET -3.56744 0.00000 0.00000
												CHANNELS 3 Zrotation Xrotation Yrotation
												End site
												{
													OFFSET 0.00000 0.00000 0.00000
												}
											}
										}
									}
									JOINT RightHandPinky1
									{
										OFFSET -11.11390 0.00000 -6.03719
										CHANNELS 3 Zrotation Xrotation Yrotation
										JOINT RightHandPinky2
										{
											OFFSET -4.52789 0.00000 0.00000
											CHANNELS 3 Zrotation Xrotation Yrotation
											JOINT RightHandPinky3
											{
												OFFSET -2.46976 0.00000 0.00000
												CHANNELS 3 Zrotation Xrotation Yrotation
												End site
												{
													OFFSET 0.00000 0.00000 0.00000
												}
											}
										}
									}
								}
							}
						}
					}
					JOINT LeftShoulder
					{
						OFFSET 0.01000 7.91373 5.19711
						CHANNELS 3 Zrotation Xrotation Yrotation
						JOINT LeftArm
						{
							OFFSET 18.41580 0.00000 0.00000
							CHANNELS 3 Zrotation Xrotation Yrotation
							JOINT LeftForeArm
							{
								OFFSET 29.11090 0.00000 0.00000
								CHANNELS 3 Zrotation Xrotation Yrotation
								JOINT LeftHand
								{
									OFFSET 24.65040 0.00000 0.00000
									CHANNELS 3 Zrotation Xrotation Yrotation
									JOINT LeftHandThumb1
									{
										OFFSET 5.35114 -0.85590 3.97906
										CHANNELS 3 Zrotation Xrotation Yrotation
										JOINT LeftHandThumb2
										{
											OFFSET 4.52789 0.00000 0.00000
											CHANNELS 3 Zrotation Xrotation Yrotation
											JOINT LeftHandThumb3
											{
												OFFSET 2.46977 0.00000 0.00000
												CHANNELS 3 Zrotation Xrotation Yrotation
												End site
												{
													OFFSET 0.00000 0.00000 0.00000
												}
											}
										}
									}
									JOINT LeftHandIndex1
									{
										OFFSET 14.26970 0.00000 2.88139
										CHANNELS 3 Zrotation Xrotation Yrotation
										JOINT LeftHandIndex2
										{
											OFFSET 5.48836 0.00000 0.00000
											CHANNELS 3 Zrotation Xrotation Yrotation
											JOINT LeftHandIndex3
											{
												OFFSET 3.01859 0.00000 0.00000
												CHANNELS 3 Zrotation Xrotation Yrotation
												End site
												{
													OFFSET 0.00000 0.00000 0.00000
												}
											}
										}
									}
									JOINT LeftHandMiddle1
									{
										OFFSET 14.26970 0.00000 -0.09147
										CHANNELS 3 Zrotation Xrotation Yrotation
										JOINT LeftHandMiddle2
										{
											OFFSET 6.17440 0.00000 0.00000
											CHANNELS 3 Zrotation Xrotation Yrotation
											JOINT LeftHandMiddle3
											{
												OFFSET 3.56744 0.00000 0.00000
												CHANNELS 3 Zrotation Xrotation Yrotation
												End site
												{
													OFFSET 0.00000 0.00000 0.00000
												}
											}
										}
									}
									JOINT LeftHandRing1
									{
										OFFSET 12.69180 0.00000 -3.06433
										CHANNELS 3 Zrotation Xrotation Yrotation
										JOINT LeftHandRing2
										{
											OFFSET 5.62556 0.00000 0.00000
											CHANNELS 3 Zrotation Xrotation Yrotation
											JOINT LeftHandRing3
											{
												OFFSET 3.56744 0.00000 0.00000
												CHANNELS 3 Zrotation Xrotation Yrotation
												End site
												{
													OFFSET 0.00000 0.00000 0.00000
												}
											}
										}
									}
									JOINT LeftHandPinky1
									{
										OFFSET 11.11390 0.00000 -6.03719
										CHANNELS 3 Zrotation Xrotation Yrotation
										JOINT LeftHandPinky2
										{
											OFFSET 4.52789 0.00000 0.00000
											CHANNELS 3 Zrotation Xrotation Yrotation
											JOINT LeftHandPinky3
											{
												OFFSET 2.46976 0.00000 0.00000
												CHANNELS 3 Zrotation Xrotation Yrotation
												End site
												{
													OFFSET 0.00000 0.00000 0.00000
												}
											}
										}
									}
								}
							}
						}
					}
					JOINT pCube4
					{
						OFFSET 0.00000 10.91090 1.10792
						CHANNELS 3 Zrotation Xrotation Yrotation
						End site
						{
							OFFSET 0.00000 0.00000 0.00000
						}
					}
				}
			}
		}
	}
	JOINT RightUpLeg
	{
		OFFSET -9.98441 0.00000 0.00000
		CHANNELS 3 Zrotation Xrotation Yrotation
		JOINT RightLeg
		{
			OFFSET 0.00000 -42.11790 0.00000
			CHANNELS 3 Zrotation Xrotation Yrotation
			JOINT RightFoot
			{
				OFFSET 0.00000 -45.00020 -0.00001
				CHANNELS 3 Zrotation Xrotation Yrotation
				JOINT RightForeFoot
				{
					OFFSET 0.00000 -3.74820 0.00000
					CHANNELS 3 Zrotation Xrotation Yrotation
					JOINT RightToeBase
					{
						OFFSET 0.00000 0.06325 14.43120
						CHANNELS 3 Zrotation Xrotation Yrotation
						End site
						{
							OFFSET 0.00000 0.00000 0.00000
						}
					}
				}
			}
		}
	}
	JOINT LeftUpLeg
	{
		OFFSET 9.98441 0.00000 0.00000
		CHANNELS 3 Zrotation Xrotation Yrotation
		JOINT LeftLeg
		{
			OFFSET 0.00000 -42.11800 0.00000
			CHANNELS 3 Zrotation Xrotation Yrotation
			JOINT LeftFoot
			{
				OFFSET 0.00000 -45.00070 0.00000
				CHANNELS 3 Zrotation Xrotation Yrotation
				JOINT LeftForeFoot
				{
					OFFSET 0.00000 -3.74824 0.00000
					CHANNELS 3 Zrotation Xrotation Yrotation
					JOINT LeftToeBase
					{
						OFFSET 0.00000 0.06325 14.43110
						CHANNELS 3 Zrotation Xrotation Yrotation
						End site
						{
							OFFSET 0.00000 0.00000 0.00000
						}
					}
				}
			}
		}
	}
}
MOTION
Frames: 4
Frame Time: 0.050000
-0.03286759145663037 -0.03847774796702736 0.043077654327149224 -0.02589412697841594 0.00731515547313181 -0.04155389698807119 -2.3986803653862543 -0.18481731451357503 -0.9285566410735135 -0.9845637773158165 3.711592897783427 0.37110314293686275 -1.3525165843101066 -2.1723324801487367 -1.300799850998031 0.7992373837226776 0.15878930005260938 -0.8737309196200433 1.226564424404777 14.608245292478445 -3.531850005712848 0.3706110761769119 1.228353261787441 -9.33631396890624 1.585091410551327 -13.185268454830654 -0.7173254850840813 -7.425010882410465 2.3578470214431313 -15.71574873673526 68.33770882260916 -2.0520976470815984 13.180263376529144 22.543988061063768 3.0777251622548163 98.34149135984427 10.98880997810691 -0.37772950474630185 -1.9737365018282789 4.524897998795506 -0.1432866392506036 -1.5915537295232094 0.025184205624945326 0.02588733998035378 -56.28193000606307 0.013523588594112809 -0.0022410564073304237 -56.2014825313846 -38.72197456698263 -0.023340314266361194 -0.02947521571422359 0.001007363337431386 0.03297660668146369 -0.021463289685011086 0.0019109486663810536 0.020129117376873857 -0.04165553366388752 -36.65032857777978 -0.04841723993087166 0.017028599549130656 -0.021637066110735497 -0.035117264376778735 0.008346547089244467 0.002390850854637421 0.012040599697659459 -0.049265828764102744 -19.72127756342264 0.009021725265139911 -0.014045143721195913 -0.044442467553112416 0.027971770355718156 0.01889774807862817 -0.013195586674614287 0.027613620784964803 0.014186968694012005 24.070934562878055 0.049089847493895805 0.016266669661680264 28.87823155807091 0.040256675497145004 -0.00343023605631922 28.868422586734777 0.0019071443981313427 0.027127949436874636 7.21389230102109 1.746243192037359 13.210988332778433 -68.40877671643456 15.138170936257163 -12.593205828294996 -22.49879619233965 1.9641614228171 -100.6173508330599 -1.9386722114980224 -1.713473960086416 -1.8252879791048588 -0.5163221715335794 0.06930939180286767 -8.117875004178387 0.012740440457226991 -0.012824106183600924 44.600757870514634 -0.01968148825012272 0.014618471356154563 44.58086528687461 12.477057001050676 -0.025719041688504477 0.015557960727708889 -0.031728931897267325 0.012615768423757232 -0.019834647899498428 0.002425280980773106 -0.02795118747804485 0.03473054480636995 11.11533299194815 0.02593803948497391 -0.0011239554210384169 0.003308326811381678 0.011392143450268767 -0.010787142463253935 -0.015444662626857723 0.0068140558467677794 0.02990054067453218 4.786071219644664 0.01846017893799126 0.00515435022381637 0.005979644848970075 0.025241632757593863 0.020310546813855152 0.04236926008857516 0.010288313773040661 0.04827590870780393 -5.552235358069156 -0.011613197621752728 -0.04050084048667339 -6.71886903612534 -0.00999838140977135 -0.04343487184719975 -6.722963496470719 -0.01441206998592653 -0.030291020383410416 0.02833368177919206 -0.024304390466467523 0.0007836409654628429 8.02909856295386 3.4800150673943757 -19.174776430341474 0.006845067692410746 10.411186201161927 -0.025015541267626482 -5.606365548275291 -15.65511541269394 3.147708811365415 0.00579055725830342 -0.03798294737416535 -0.012959961301630305 -0.04943438419803373 4.679032082431675 -0.04195104602877531 12.499416372982047 -8.236189495913903 6.842237061755754 -0.005812903087514587 46.37657460674293 -0.023620608222716714 -4.315548004532138 -14.75537971817491 -3.806839138362366 -0.005123355577585726 -0.008855712442539826 -0.014062472096412955 -0.04412041667947248 -10.775952281761338 -0.00940983693417745 
-0.04164378422622764 0.03179370766664348 -0.021810703682583678 -0.00663512862457177 0.037673924875540915 0.015347858602634198 -2.586399277681502 -0.19197391603859315 -0.8177074345385749 -0.9777194177490239 3.69959936156803 0.3356239463284429 -1.39559774672748 -2.1429046909491056 -1.2835966401312258 0.7981416299221178 0.14714406745462888 -0.9014423522651495 1.168658837339547 14.698407874504873 -3.4308614970072697 0.3804309515744482 1.3089535027380539 -8.967846956107449 1.5812128700899073 -12.893877584701162 -0.7275519951163024 -7.556256972134082 2.4244684320382413 -15.519677254696692 67.9358039774901 -2.310272756232179 15.206468571314065 21.927070388606598 2.9599461684913555 98.09889389888977 11.543334162440427 -0.3414497493304129 -2.1461692438220883 4.489257869345432 -0.10302701730928052 -1.5736580525672637 -0.028825894612146692 -0.04063884612253801 -56.22963365278113 -0.022178886180277173 0.0013848128539861878 -56.201244003279015 -38.77902290625671 0.007688068623481232 -0.0019770093836776028 0.010915070156459695 0.018309978658360947 0.030077542359938595 -0.005862906453172671 -0.002396669653613344 -0.02465394294031284 -36.65132220417592 0.008710872396099805 -0.045077471809314304 0.03722443860324297 -0.02244919328039701 0.013668120705790657 0.036727454341107725 0.013036460387439866 -0.042813477487282946 -19.735789152913313 -0.04782821492360822 0.020643895941285628 0.03940727252566344 0.01586897668098781 -0.03127183573245399 0.003941796712681656 0.0013446620840938891 0.007606017272749322 24.045428161256055 0.03569818566667581 -0.02646743509824646 28.832862612558863 0.03088222562910713 0.007623903290503616 28.830105616155308 -0.024527699049539824 0.005276758011537527 7.310465692485349 1.776288239026698 13.054051672559297 -68.06047637327711 15.682306176344353 -13.707154188066763 -21.403671850982107 1.3019698229654448 -99.9089984633323 -2.583540010702971 -1.9319952728183376 -1.4546689007151816 -0.5216927025903043 0.06414430576239842 -8.107658483391445 -0.048393308634633495 0.022668988268498336 44.61719562185345 -0.010530334997638615 0.0013162094216590911 44.54916061436401 12.454808580300233 -0.0299830001828851 0.0313785652854812 -0.043641335706762215 -0.031068934092591628 -0.033542555415369824 0.02815863762992742 -0.023710628548456285 0.019971162970972144 11.09116784598493 0.02890732675965683 -0.003773111807867094 -0.006628478812262993 0.006018845211345765 0.03873238069955738 0.04879460132827101 0.030575952658740312 -0.005167942371726112 4.782786115235914 -0.0006242619592177357 0.03445773706346659 -0.009535206688541546 -0.00823511269481566 -0.021914114870627974 -0.03596451694931854 0.0014517310699495452 -0.03197025250731659 -5.57988476829389 -0.0022445754964432055 0.020230119264839565 -6.764029267038975 0.001011629116171822 -0.04164475590325081 -6.748864958874892 0.013285957954985423 0.018797769368635472 -0.036403970450063015 -0.04487764866495633 -0.007960653013800799 8.079239751028874 3.490086238549334 -19.23520017851896 -0.00022758115186988716 10.397246712461763 -0.008079462364615406 -5.662705214445668 -15.643972745308615 3.1785499225022207 -0.04622472207440341 0.0053181511643237405 0.020610436973478596 0.0205571207684017 4.687038692663552 0.016519213769190574 12.448488409296514 -8.196258799999118 6.9283526904128045 0.04151568053598825 46.42609601355701 -0.032844901396974484 -4.361873232440371 -14.743694808174467 -3.8628978072878555 0.011202138374560295 -0.006778259916516906 0.021495991919412323 0.02410610808802594 -10.758018571834356 0.04246172526665845 
-0.032089838130133934 0.002643423917066075 -0.006022000166647012 0.007424406525388514 -0.02172468785003805 -0.04876825353732338 -2.6167993120243547 -0.2119916322101835 -0.8392161036267464 -0.9310511849733979 3.704054155408044 0.3444410174392553 -1.4040810202454523 -2.2599021927866585 -1.184712537093019 0.7075994963317879 0.16181250452552723 -0.8463016692901658 1.1514502588107836 14.765277675797897 -3.196230802935824 0.45443462222500525 1.5126328749268796 -8.54125872650509 1.5556482449414604 -12.656358848951484 -0.6267215661733725 -7.681428459494785 2.405934698799658 -15.288190206441465 67.93599578215606 -1.8194868111747726 17.06582347511917 21.39352204395354 3.0461768188358143 97.69131496769329 12.2783674404586 -0.44576654414540284 -2.478659581512921 4.546875615586284 -0.15465712068556883 -1.6209602256278504 0.03896577631131576 -0.046424756718597596 -56.227824365500965 0.049784679378283486 -0.029698390301579655 -56.206434019427796 -38.799522525384106 -0.021266108076667716 0.003317076567310206 -0.03818289996217296 -0.009519794555874959 0.03973701792339366 0.012835067072793577 -0.010635441859600001 -0.03934858968826084 -36.70018199577137 0.0021183578607865314 0.041801244010175834 -0.01662667912736043 -0.03599769042784408 -0.03208440341515778 0.04055304172193834 -0.00954270683890919 0.01743795902522146 -19.725507307073226 -0.029666535104552572 0.03321794789236123 -0.039641000487519694 -0.006209227443624827 -0.04483484831151956 0.010984127025542717 -0.024103732335977002 -0.014878353734591877 24.079611135332037 0.01389377103984962 0.010158958248229573 28.826273453996937 0.01993195314325745 0.029949819910825157 28.862461590956382 -0.007890739697360073 -0.02990922820432292 7.420833448234043 1.834136016819274 12.903607333739874 -67.93853041448146 16.271877693862624 -14.801495064618257 -21.538423846931078 1.4939043651210147 -99.44839876385758 -3.480103920606612 -2.2099905135166225 -1.0721576002121698 -0.4614155972699596 0.053575878965953026 -8.165099632050284 0.04083293763319254 0.0346037826747984 44.58513837510708 -0.03083992964736784 0.009803277755746171 44.544760924191685 12.482935847462553 0.014971683407673455 0.047630000620673005 -0.024019314798401768 0.013409294221566226 -0.03244943680880589 0.037611896945901384 -0.0037632254934178637 0.037461824607503816 11.139709808639507 -0.027765754881077978 -0.049813569855615546 0.017857984348837216 0.03848790628208683 0.025659969425254014 0.0010807885379622317 0.035563557641088234 -0.015396073481104857 4.734911769886158 -0.029018389374943988 -0.02321579083895132 -0.0482206909855207 -0.00782599550906598 0.01744774458046708 0.0138053785205609 0.0018697131230635661 -0.02375725010224214 -5.580533293030273 0.04720429593756997 0.03366217295759293 -6.689977592566506 0.01606785024399564 0.008667912201983482 -6.677190019292221 0.023460473194189778 0.015945251036938952 0.028848855709776546 0.03330809027878498 0.02798758108620744 8.084208466855241 3.4690239763309854 -19.23141937719948 -0.012469777716523698 10.421098939533513 0.06269438099328059 -5.612988509510737 -15.702648959563305 3.200879252211576 -0.047795106539303446 0.03817398263100458 -0.03572745283553876 -0.015187374815097873 4.670534037455575 -0.011797376797657383 12.446351656284474 -8.27803873496507 6.8920178926198705 -0.011993067236488773 46.39618565276797 -0.0036586969208433637 -4.317948906617006 -14.736848614341012 -3.845152474544106 -0.03637043909001962 0.04794215596257663 0.0437670633694078 0.02767838211129118 -10.784639260203374 0.02585497230016597 
-0.027292085776407557 -0.023178356043597644 0.020525630567165765 -0.038350445130016446 -0.020054991728402968 0.04562056908530987 -2.7358234428148056 -0.16831343581028196 -0.8177145253031766 -0.9505025431638867 3.6483129281475337 0.3205354052033119 -1.4124888389900223 -2.2595174133496956 -1.2098630677959503 0.5063472193220778 0.0904660692691183 -0.8947258451654825 1.1188714093871257 14.917892073418956 -2.9107142733499614 0.49418293747401854 1.5889074551882094 -7.886157766928887 1.4583959807953364 -12.421440995456582 -0.5947111767147721 -7.7224309184526385 2.4823112936150973 -15.024706141406464 68.43060562997465 -1.0441191736575266 18.647237345654787 21.734010337038672 3.233431299665402 97.15893952403287 13.009107946473486 -0.4602561149406918 -2.754576579275711 4.544040335591017 -0.10088328105391439 -1.633283471750431 0.03172325339768288 0.030771260352645276 -56.2376299159693 -0.02702318383117645 -0.026835650695657954 -56.210007148935 -38.79225172543759 -0.002230216261050204 0.022239465371922597 -0.012423131070128799 -0.006868204799589145 -0.0352138076888818 -0.01756092799855463 0.014062867506525698 -0.0317835410676154 -36.680131525964846 0.00854514599339705 -0.037652395533800044 0.011943049963560435 0.02572612508815114 0.03642221515071673 -0.00038328882984666927 -0.024896954222146033 0.009812994962502337 -19.77913069116953 -0.0006777167606746974 0.002573264549895833 0.042305608979236395 0.04658194513801719 0.01345965002271027 0.03386501213721126 0.0314405028577733 -0.032531757301915765 24.061818388036205 0.01770177083898878 -0.00544617809224024 28.826612465446726 -0.003945300884635464 -0.0385315111032025 28.88693711722838 0.00815293737211506 0.005826384355003084 7.649297618607024 1.8643679503566464 12.758348588363255 -68.04391587011378 16.228900636471618 -16.215652913463995 -23.0263860132685 2.362777688818335 -99.2728548039323 -4.1634693201894635 -2.3123249163869177 -0.8872396954932237 -0.45181483273654083 0.030994068179670056 -8.161939739871983 -0.014682838240978031 -0.006466080526821665 44.596256657798605 -0.01772697773502309 -0.0070544873956336854 44.571938612682345 12.456607474587345 0.008553076923041854 0.01101812668060046 0.019507821403733007 -0.04992277225199193 -0.01936336560147642 0.03395424258218387 0.028879073943854798 -0.002671399286925357 11.136662579476969 0.01605255347443713 0.01943657366108693 0.024923227376196885 0.006809720836032615 0.025975793096430597 -0.028397627772225393 0.0214805526109818 -0.0206425372830008 4.722862652569161 -0.015390896619731377 -0.006031699246141587 -0.021647986865622384 -0.017868561332447647 -0.020892639204927628 0.039624086211626004 -0.006797855219204125 -0.01965244140847186 -5.560255296111384 0.03456842716508563 0.0371980946193597 -6.724395128887841 -0.045917081718521185 0.01652925078097443 -6.759483022826537 -0.042768514556686905 -0.030289156774831943 -0.04250301566460006 0.0355490871532179 0.019357324579545032 8.038453577914758 3.4726272260555575 -19.24537541873697 -0.024354866400020728 10.408573940326415 -0.028427237361356907 -5.578323401621141 -15.699433788244242 3.175685811558725 -0.023221615848074133 -0.045908222373512574 0.009300454602004207 0.011479619627900074 4.673749208638044 -0.03142499829272049 12.445506766449435 -8.229179419843726 6.886278542135177 -0.010766523088933872 46.35480040250501 0.01114560643636987 -4.28944464694346 -14.798210614271996 -3.8706081433638073 -0.029541188443891465 0.043888459565356794 0.006154738140740637 0.00625224121430521 -10.791650893006596 -0.024369436580958515 
